<svg id="Group_1_copy_2" data-name="Group 1 copy 2" xmlns="http://www.w3.org/2000/svg" width="449.969" height="132.063" viewBox="0 0 449.969 132.063">
  <defs>
    <style>
      .cls-1 {
        fill: #fff;
        fill-rule: evenodd;
      }

      .cls-2 {
        fill: #064CDB;
      }
    </style>
  </defs>
  <path id="orthy" class="cls-1" d="M192.54,55.9c-2.964-4.955-7.97-10.842-13.019-13.663a34.2,34.2,0,0,0-16.964-4.23c-6.26,0-11.937,2.411-17.027,5.23s-9.12,7.708-12.081,12.663-4.226,10.593-4.226,16.992,1.262,12.256,4.226,17.211a31.722,31.722,0,0,0,12.081,11.663A34.53,34.53,0,0,0,162.557,106a34.184,34.184,0,0,0,16.964-4.23A31.883,31.883,0,0,0,191.54,90.1,32.681,32.681,0,0,0,195.984,73C195.984,66.558,195.5,60.857,192.54,55.9ZM178.272,84.182c-1.8,3.263-2.237,3.822-5.324,5.674a19.8,19.8,0,0,1-10.391,2.78,16.722,16.722,0,0,1-9.454-2.78c-3.13-1.853-3.593-2.411-5.387-5.674A25.718,25.718,0,0,1,145.15,73c0-3.072-.23-7.037,1.566-10.3s2.6-4.572,5.387-6.614a18.1,18.1,0,0,1,10.454-3.719,20.145,20.145,0,0,1,10.391,2.719c3.087,1.813,5.266,3.9,6.052,5.912a34.932,34.932,0,0,1,1.839,12A26.2,26.2,0,0,1,178.272,84.182Zm73.109-44.849c-1.6-.8-4.881-1.2-7.84-1.2a19.333,19.333,0,0,0-11.22,3.72c-3.56,2.481-5.221,3.64-6.98,7.48v-9.88h-15.48v66h15.48v-35.8c0-3.36-.18-5.259,1.46-7.7a17,17,0,0,1,6.18-5.64,15.922,15.922,0,0,1,7.56-1.98,15.594,15.594,0,0,1,3.66.42c1.159,0.281,3.14-.379,3.94.02Zm35.285,15.132h15.348V39.872H286.666V24H271.709V39.872H259V54.465h12.713v51.519h14.957V54.465Zm49.793-12.912c-3.681,2.28-5.48,4.9-7.4,7.86V13.653H313.7v90.8h15.36V67.293c0-2.719-.28-5.2,1.16-7.44a15.982,15.982,0,0,1,5.88-5.4,17.428,17.428,0,0,1,8.52-2.04q5.157-.36,8.04,1.68a10.1,10.1,0,0,1,4.08,5.64c0.577,2.123.2,5.121,0.2,8.16v36.56H371.3v-38.4a43.27,43.27,0,0,0-1.86-13.08c-1.242-3.919-4.42-9.039-7.54-11.36s-7.521-3.48-13.2-3.48A22.769,22.769,0,0,0,336.459,41.553Zm77.919,91.5,10.68-28.6,25.92-64h-16.64L418.9,83.933q-0.48,1.2-.9,2.46t-0.9,2.58q-0.48-1.319-.84-2.4a13.968,13.968,0,0,0-.72-1.8l-18.68-44.32h-17.4l29.28,65.12L409,107l-10.942,26.053h16.32Z" transform="translate(-1 -1)"/>
  <circle class="cls-2" cx="60" cy="60" r="60"/>
  <path class="cls-1" d="M8.336,31.011h7.55c0.1,0.272.187,0.491,0.259,0.715q7.041,22.036,14.09,44.07a8.652,8.652,0,0,0,.823,1.774,2.117,2.117,0,0,0,2.105,1.317,2.615,2.615,0,0,0,2.4-1.769c0.15-.515.344-1.018,0.465-1.54q4.17-17.984,8.326-35.971,0.988-4.27,1.988-8.552H68.005c0.085,0.262.17,0.483,0.228,0.712q4.979,19.764,9.958,39.527c0.475,1.881,1,3.747,1.538,5.611a2.13,2.13,0,0,0,2.161,1.737,2.166,2.166,0,0,0,2.079-1.614c0.17-.508.385-1,0.554-1.509C81.891,83.452,105,19,105,19s7.885,9.64,12,19q-5,14.5-10,29c-2.254,7.461-4.818,14.931-7.309,21.238A25.359,25.359,0,0,1,92.952,98.53a21.611,21.611,0,0,1-4.683,3.091A35.882,35.882,0,0,1,84.463,103H80.118a2.022,2.022,0,0,0-.465-0.194,14.5,14.5,0,0,1-8.49-4.507,23.215,23.215,0,0,1-5.422-10.109c-2.258-8.17-4.421-16.367-6.625-24.553-0.469-1.742-.946-3.483-1.479-5.442-0.157.456-.251,0.673-0.308,0.9-1.867,7.412-3.7,14.834-5.608,22.233-0.955,3.695-1.837,7.436-3.15,11a15.334,15.334,0,0,1-10.69,10.045c-0.915.251-1.851,0.42-2.777,0.626H29.369c-0.584-.129-1.166-0.273-1.753-0.386A13.133,13.133,0,0,1,17.9,95.8a42.422,42.422,0,0,1-2.9-6.61C10.632,75.872,1.98,49.2,1.98,49.2A42.874,42.874,0,0,1,4,40,54.617,54.617,0,0,1,8.336,31.011Z" transform="translate(-1 -1)"/>
</svg>
